<svg width="501" height="500" viewBox="0 0 501 500" fill="none" xmlns="http://www.w3.org/2000/svg">
<g filter="url(#filter0_i_1_57)">
<path d="M500 250C501.868 382.155 389.561 495.461 250 500C111.929 500 0 388.071 0 250C0 111.929 111.929 0 250 0C388.071 0 500 111.929 500 250Z" fill="#363433"/>
</g>
<path d="M286.982 165.456L268.179 177.973C270.13 165.504 271.321 159.781 273.958 156.257C277.084 155.711 280.03 157.927 286.982 165.456Z" fill="white" stroke="black" stroke-width="3"/>
<g filter="url(#filter1_b_1_57)">
<path d="M154.072 365.697C130.368 318.882 56.7855 395.144 56 406C223.055 598.564 462 292.66 489 311.247C516 329.834 348 196.747 339.201 187.379C330.403 178.012 322.241 181.115 309.179 183.145C309.862 164.815 307.546 157.867 280.159 174.167L132.057 266.939C133.246 307.958 143.286 325.097 169.083 350.734L198.103 344.748C200.396 342.306 218.075 364.958 204.107 359.712C190.139 354.465 179.864 355.316 154.072 365.697Z" fill="white"/>
<path d="M152.734 366.374L153.356 367.602L154.633 367.088C167.505 361.907 176.365 359.165 183.692 358.334C190.948 357.512 196.768 358.557 203.579 361.116C205.386 361.794 206.924 362.124 208.151 361.962C208.795 361.876 209.424 361.645 209.935 361.188C210.454 360.725 210.735 360.135 210.855 359.539C211.077 358.434 210.771 357.198 210.351 356.102C209.91 354.951 209.243 353.707 208.472 352.482C206.93 350.034 204.866 347.5 203.014 345.714C202.098 344.831 201.164 344.063 200.321 343.594C199.907 343.364 199.41 343.146 198.882 343.082C198.464 343.032 197.951 343.075 197.484 343.344L169.57 349.102C157.02 336.576 148.386 326.161 142.702 313.971C137.018 301.781 134.227 287.695 133.583 267.753L280.941 175.447C287.752 171.394 292.917 168.84 296.819 167.538C300.776 166.217 303.113 166.294 304.516 167.007C305.849 167.684 306.791 169.18 307.309 171.989C307.825 174.783 307.851 178.505 307.68 183.089L307.613 184.906L309.41 184.627C311.058 184.371 312.627 184.098 314.117 183.837L314.402 183.787C315.792 183.544 317.108 183.313 318.376 183.114C321.089 182.689 323.499 182.421 325.745 182.487C330.118 182.617 333.981 184.012 338.108 188.406C339.286 189.66 342.964 192.836 348.31 197.305C353.7 201.81 360.884 207.709 369.168 214.462C382.758 225.54 399.319 238.926 415.794 252.242C419.405 255.161 423.012 258.076 426.582 260.963C446.446 277.024 465.183 292.204 477.265 302.207C480.459 304.851 483.178 307.125 485.326 308.954C483.968 309.052 482.514 309.416 481.017 309.951C477.573 311.185 473.421 313.503 468.67 316.627C459.155 322.883 446.894 332.605 432.508 344.119C431.382 345.02 430.243 345.932 429.091 346.855C400.745 369.554 364.509 398.573 324.252 422.576C282.347 447.563 236.236 467.021 190.293 468.32C144.618 469.61 98.9628 452.958 57.6094 405.565C57.7277 405.169 57.9455 404.628 58.3045 403.93C58.8501 402.868 59.6512 401.577 60.6942 400.094C62.778 397.132 65.7627 393.499 69.4209 389.56C76.7375 381.683 86.6653 372.674 97.2844 365.463C107.939 358.227 119.118 352.921 128.966 352.214C133.86 351.862 138.379 352.649 142.358 354.854C146.333 357.058 149.882 360.742 152.734 366.374Z" stroke="black" stroke-width="3"/>
</g>
<g filter="url(#filter2_d_1_57)">
<path d="M272 214C268.401 225.904 263.96 230.78 250 235" stroke="black" stroke-width="5"/>
</g>
<circle cx="261" cy="226" r="27.5" stroke="black" stroke-width="5"/>
<path d="M306.532 186.053L294.709 196.188L284 205.453" stroke="black" stroke-width="5"/>
<defs>
<filter id="filter0_i_1_57" x="0" y="0" width="500.023" height="504" filterUnits="userSpaceOnUse" color-interpolation-filters="sRGB">
<feFlood flood-opacity="0" result="BackgroundImageFix"/>
<feBlend mode="normal" in="SourceGraphic" in2="BackgroundImageFix" result="shape"/>
<feColorMatrix in="SourceAlpha" type="matrix" values="0 0 0 0 0 0 0 0 0 0 0 0 0 0 0 0 0 0 127 0" result="hardAlpha"/>
<feOffset dy="4"/>
<feGaussianBlur stdDeviation="2"/>
<feComposite in2="hardAlpha" operator="arithmetic" k2="-1" k3="1"/>
<feColorMatrix type="matrix" values="0 0 0 0 0 0 0 0 0 0 0 0 0 0 0 0 0 0 0.25 0"/>
<feBlend mode="normal" in2="shape" result="effect1_innerShadow_1_57"/>
</filter>
<filter id="filter1_b_1_57" x="52" y="161" width="443.934" height="312.889" filterUnits="userSpaceOnUse" color-interpolation-filters="sRGB">
<feFlood flood-opacity="0" result="BackgroundImageFix"/>
<feGaussianBlur in="BackgroundImageFix" stdDeviation="2"/>
<feComposite in2="SourceAlpha" operator="in" result="effect1_backgroundBlur_1_57"/>
<feBlend mode="normal" in="SourceGraphic" in2="effect1_backgroundBlur_1_57" result="shape"/>
</filter>
<filter id="filter2_d_1_57" x="245.277" y="213.277" width="33.1165" height="32.1165" filterUnits="userSpaceOnUse" color-interpolation-filters="sRGB">
<feFlood flood-opacity="0" result="BackgroundImageFix"/>
<feColorMatrix in="SourceAlpha" type="matrix" values="0 0 0 0 0 0 0 0 0 0 0 0 0 0 0 0 0 0 127 0" result="hardAlpha"/>
<feOffset dy="4"/>
<feGaussianBlur stdDeviation="2"/>
<feComposite in2="hardAlpha" operator="out"/>
<feColorMatrix type="matrix" values="0 0 0 0 0 0 0 0 0 0 0 0 0 0 0 0 0 0 0.25 0"/>
<feBlend mode="normal" in2="BackgroundImageFix" result="effect1_dropShadow_1_57"/>
<feBlend mode="normal" in="SourceGraphic" in2="effect1_dropShadow_1_57" result="shape"/>
</filter>
</defs>
</svg>
