<svg width="108" height="132" viewBox="0 0 108 132" fill="none" xmlns="http://www.w3.org/2000/svg">
<g filter="url(#filter0_d_1_13)">
<path d="M104 66C104 93.6142 81.6142 116 54 116C26.3858 116 4 93.6142 4 66C4 38.3858 26.3858 16 54 16C81.6142 16 104 38.3858 104 66Z" fill="#624941"/>
<path d="M103.5 66C103.5 93.3381 81.3381 115.5 54 115.5C26.6619 115.5 4.5 93.3381 4.5 66C4.5 38.6619 26.6619 16.5 54 16.5C81.3381 16.5 103.5 38.6619 103.5 66Z" stroke="black"/>
</g>
<g filter="url(#filter1_d_1_13)">
<path d="M100.219 95.5625C100.281 95.8125 100.25 96 100.125 96.125C100 96.25 100 96.4375 100.125 96.6875C99.3125 97.5 98.125 98.125 96.5625 98.5625C96.0625 98.75 95.5 98.8438 94.875 98.8438C94.5 98.8438 94.125 98.8125 93.75 98.75C93.375 98.6875 93.0312 98.6875 92.7188 98.75C92.2188 98.9375 91.8438 99.25 91.5938 99.6875C91.4062 100.125 91.25 100.594 91.125 101.094C90.4375 101.406 89.75 101.594 89.0625 101.656C88.4375 101.781 87.8438 101.969 87.2812 102.219C87.0312 102.344 86.8125 102.438 86.625 102.5C86.5 102.625 86.2812 102.75 85.9688 102.875C85.6562 103 85.3438 103.062 85.0312 103.062C84.7812 103.062 84.5312 103.25 84.2812 103.625C83.4688 103.812 82.6562 104.062 81.8438 104.375C81.0312 104.75 80.2188 105.031 79.4062 105.219C78.5938 105.469 77.7812 105.594 76.9688 105.594C76.1562 105.656 75.375 105.469 74.625 105.031C73.5625 103.781 72.7812 102.719 72.2812 101.844C71.7812 101.031 71.1875 100.219 70.5 99.4062C70.25 99.0938 69.9688 98.8125 69.6562 98.5625C69.4062 98.25 69.2188 97.9375 69.0938 97.625C68.6562 96.75 68.3125 96.125 68.0625 95.75C67.8125 95.375 67.5625 94.9688 67.3125 94.5312C66.75 93.7188 66.25 92.875 65.8125 92C65.4375 91.125 64.9375 90.3125 64.3125 89.5625C62.125 89.5625 60 89.6875 57.9375 89.9375C55.875 90.1875 53.875 90.3125 51.9375 90.3125C51.625 90.3125 51.3125 90.2812 51 90.2188C50.75 90.1562 50.4688 90.0938 50.1562 90.0312C49.8438 90.0312 49.5312 90.0625 49.2188 90.125C48.9062 90.1875 48.5938 90.1875 48.2812 90.125C47.4688 90 46.9062 89.875 46.5938 89.75C46.3438 89.5625 46.0312 89.4375 45.6562 89.375C44.8438 89.25 44.0938 89.3438 43.4062 89.6562C42.7188 89.9688 42.0938 90.3125 41.5312 90.6875C41.1562 90.5 40.8438 90.5 40.5938 90.6875C40.3438 90.8125 40.0312 90.9375 39.6562 91.0625C39.2188 91.1875 38.7188 91.25 38.1562 91.25C37.6562 91.25 37.1562 91.3125 36.6562 91.4375C36.1562 91.5625 35.625 91.6562 35.0625 91.7188C34.5 91.7188 34.0312 91.8438 33.6562 92.0938C33.5312 92.2188 33.3438 92.5625 33.0938 93.125C32.9062 93.625 32.75 93.9688 32.625 94.1562C32.5625 94.3438 32.5312 94.5312 32.5312 94.7188C32.5312 94.9062 32.4688 95.0938 32.3438 95.2812C31.9688 96.3438 31.6562 97.5312 31.4062 98.8438C31.1562 100.094 30.8438 101.25 30.4688 102.312C30.1562 102.562 29.875 102.812 29.625 103.062C29.4375 103.375 29.1875 103.562 28.875 103.625C28.4375 103.75 27.9062 103.75 27.2812 103.625C26.6562 103.562 26.0938 103.562 25.5938 103.625C25.3438 103.688 25.0938 103.75 24.8438 103.812C24.5938 103.875 24.3125 103.906 24 103.906C23.4375 103.969 22.8438 103.969 22.2188 103.906C21.6562 103.844 21.1562 103.875 20.7188 104C20.4688 104.062 20.1875 104.188 19.875 104.375C19.5625 104.625 19.1875 104.75 18.75 104.75C18.25 104.812 17.75 104.719 17.25 104.469C16.9375 104.344 16.625 104.094 16.3125 103.719C16.0625 103.406 15.9062 103 15.8438 102.5C15.8438 102.062 15.9062 101.531 16.0312 100.906C16.1562 100.281 16.3125 99.6875 16.5 99.125C16.6875 98.5625 16.9062 98 17.1562 97.4375C17.4688 96.75 17.7812 96 18.0938 95.1875C18.4062 94.3125 18.7188 93.5 19.0312 92.75C18.4688 92.625 17.8438 92.625 17.1562 92.75C16.4688 92.8125 15.7812 92.9062 15.0938 93.0312C14.7812 93.0938 14.4062 93.125 13.9688 93.125C13.5938 93.125 13.25 93.125 12.9375 93.125C12 93.0625 11.4375 92.8125 11.25 92.375C11.0625 91.9375 10.9375 91.4375 10.875 90.875C10.875 90.3125 10.9062 89.75 10.9688 89.1875C11.0938 88.625 11.25 88.1875 11.4375 87.875C11.4375 86.9375 11.3438 86.0938 11.1562 85.3438C11.1562 85.1562 11.125 84.9688 11.0625 84.7812C11 84.5938 10.9688 84.4375 10.9688 84.3125C11.2188 83.4375 11.3125 82.75 11.25 82.25C11.25 81.75 11.3438 81.3438 11.5312 81.0312C11.7188 80.7188 11.9688 80.4688 12.2812 80.2812C12.5938 80.3438 12.875 80.3125 13.125 80.1875C13.375 80 13.6562 79.875 13.9688 79.8125C14.7812 79.6875 15.5625 79.6562 16.3125 79.7188C17.125 79.7812 17.9375 79.6875 18.75 79.4375C19.5 80.125 20.5 80.2812 21.75 79.9062C21.9375 79.8438 22.1562 79.7812 22.4062 79.7188C22.6562 79.6562 22.9062 79.5938 23.1562 79.5312C23.7812 79.2812 24.2188 79.125 24.4688 79.0625C25.2812 79 25.75 78.6875 25.875 78.125C26.0625 77.5625 26 77.0938 25.6875 76.7188C26.1875 75.5312 26.625 74.3438 27 73.1562C27.4375 71.9688 27.9062 70.7812 28.4062 69.5938C28.5938 68.7188 28.8125 67.9062 29.0625 67.1562C29.375 66.3438 29.8125 65.6875 30.375 65.1875C30.625 64.9375 30.9688 64.75 31.4062 64.625C31.8438 64.5 32.1562 64.2812 32.3438 63.9688C32.5312 63.6562 32.625 63.2188 32.625 62.6562C32.6875 62.0312 32.6562 61.5625 32.5312 61.25C32.4688 61.125 32.3438 60.9688 32.1562 60.7812C32.0312 60.5938 31.9688 60.4062 31.9688 60.2188C31.9062 60.0312 31.9375 59.8438 32.0625 59.6562C32.1875 59.4062 32.3125 59.125 32.4375 58.8125C33.1875 57.0625 33.9375 55.2188 34.6875 53.2812C35.5 51.3438 36.3125 49.4375 37.125 47.5625C37.4375 46.1875 37.8438 44.9062 38.3438 43.7188C38.9062 42.5312 39.375 41.2812 39.75 39.9688C39.375 39.2812 38.8438 38.4688 38.1562 37.5312C37.5312 36.5312 37.2812 35.5 37.4062 34.4375C37.4688 34 37.5938 33.6875 37.7812 33.5C38.0312 33.25 38.3125 32.9688 38.625 32.6562C39.125 32.3438 39.625 32.125 40.125 32C40.625 31.8125 41.125 31.5937 41.625 31.3438C41.9375 31.2187 42.2188 31.0625 42.4688 30.875C42.7812 30.6875 43.0938 30.5313 43.4062 30.4062C43.7188 30.2812 44 30.2188 44.25 30.2188C44.5625 30.1563 44.8438 30.0312 45.0938 29.8438C47.4062 29.4688 49.4688 28.6875 51.2812 27.5C51.4688 27.375 51.625 27.2188 51.75 27.0312C51.9375 26.8438 52.1875 26.6875 52.5 26.5625C52.8125 26.4375 53.1562 26.3125 53.5312 26.1875C53.9688 26 54.4375 25.8125 54.9375 25.625C55.875 25.1875 56.875 24.9063 57.9375 24.7812C59.0625 24.6562 60.0938 24.8437 61.0312 25.3438C61.4062 25.2187 61.6562 25.25 61.7812 25.4375C61.9062 25.625 62.125 25.875 62.4375 26.1875C62.5625 26.4375 62.7188 26.625 62.9062 26.75C63.0938 26.875 63.2812 27.0937 63.4688 27.4062C64.1562 28.3438 64.75 29.4375 65.25 30.6875C65.8125 31.9375 66.4375 33.0938 67.125 34.1562C67.3125 34.4688 67.4688 34.8125 67.5938 35.1875C67.7812 35.5 68 35.8125 68.25 36.125C68.375 36.4375 68.5 36.7188 68.625 36.9688C68.8125 37.1562 69 37.4062 69.1875 37.7188C69.3125 37.9062 69.4062 38.0938 69.4688 38.2812C69.5938 38.4062 69.6875 38.5312 69.75 38.6562C69.875 38.9688 70.0312 39.2812 70.2188 39.5938C70.4062 39.8438 70.5312 40.0625 70.5938 40.25C70.6562 40.5625 70.625 40.8438 70.5 41.0938C70.4375 41.3438 70.4062 41.5938 70.4062 41.8438C70.5312 42.8438 70.875 43.7188 71.4375 44.4688C72 45.2188 72.5625 45.8438 73.125 46.3438C73.3125 46.5312 73.5312 46.7188 73.7812 46.9062C74.0312 47.0938 74.2812 47.2812 74.5312 47.4688C74.7188 47.6562 74.8438 47.875 74.9062 48.125C75.0312 48.375 75.25 48.5625 75.5625 48.6875C75.875 49.1875 76.125 49.75 76.3125 50.375C76.5625 51 76.875 51.5312 77.25 51.9688C77.5625 52.7812 77.9688 53.5625 78.4688 54.3125C78.9688 55.0625 79.4062 55.8438 79.7812 56.6562C79.9062 56.9688 80.0312 57.2812 80.1562 57.5938C80.2812 57.9062 80.4062 58.2188 80.5312 58.5312C81.0938 59.7812 81.7188 61.0312 82.4062 62.2812C83.0938 63.5312 83.75 64.7812 84.375 66.0312C84.6875 66.2812 84.9062 66.5625 85.0312 66.875C85.1562 67.1875 85.3125 67.5 85.5 67.8125C85.8125 68.125 86.125 68.5312 86.4375 69.0312C86.8125 69.4688 87.0625 70 87.1875 70.625C87.25 71 87.25 71.4375 87.1875 71.9375C87.1875 72.375 87.1562 72.8438 87.0938 73.3438C87.0312 73.7812 87 74.25 87 74.75C87.0625 75.1875 87.2188 75.5938 87.4688 75.9688C88.1562 76.9688 89.1875 77.7188 90.5625 78.2188C90.6875 78.5312 90.9062 78.8125 91.2188 79.0625C91.5312 79.25 91.8125 79.5 92.0625 79.8125C93.0625 81.6875 93.9688 83.2812 94.7812 84.5938C95.5938 85.8438 96.3438 87.1875 97.0312 88.625C97.1562 88.9375 97.3125 89.2812 97.5 89.6562C97.75 89.9688 97.9375 90.2812 98.0625 90.5938C98.25 90.9062 98.375 91.2188 98.4375 91.5312C98.5 91.7812 98.5938 92.0312 98.7188 92.2812C98.8438 92.5938 98.9688 92.875 99.0938 93.125C99.2188 93.375 99.3438 93.6875 99.4688 94.0625C99.5938 94.3125 99.75 94.5938 99.9375 94.9062C100.125 95.1562 100.219 95.375 100.219 95.5625ZM17.8125 86C17.9375 85.1875 17.75 84.6562 17.25 84.4062C16.8125 84.1562 16.3438 83.9688 15.8438 83.8438C14.8438 83.7812 14.25 84.0312 14.0625 84.5938C13.875 85.0938 13.9062 85.5 14.1562 85.8125C14.4688 86.125 14.8125 86.4062 15.1875 86.6562C15.625 86.9062 16.0625 87.0938 16.5 87.2188C16.8125 87.0938 17.0625 86.9375 17.25 86.75C17.4375 86.5 17.625 86.25 17.8125 86ZM43.3125 42.7812C43.1875 43.1562 43 43.5625 42.75 44C42.5625 44.375 42.4688 44.6562 42.4688 44.8438C42.4688 45.1562 42.5938 45.5 42.8438 45.875C43.1562 46.1875 43.4688 46.3125 43.7812 46.25C43.9688 46.1875 44.1562 46 44.3438 45.6875C44.5312 45.375 44.6875 45.0938 44.8125 44.8438C45 44.5312 45.125 44.25 45.1875 44C45.3125 43.75 45.4375 43.4688 45.5625 43.1562C45.75 42.6562 46.0625 42.125 46.5 41.5625C46.9375 41 47.1562 40.4688 47.1562 39.9688C47.1562 39.7188 47.0938 39.4688 46.9688 39.2188C46.8438 38.9062 46.7188 38.5938 46.5938 38.2812C46.2812 37.5938 45.9688 36.9688 45.6562 36.4062C45.4062 35.7812 44.9375 35.5312 44.25 35.6562C43.625 35.7812 43.2812 36.0625 43.2188 36.5C42.9688 37.1875 43.0312 37.75 43.4062 38.1875C43.8438 38.5625 44.0625 39.0625 44.0625 39.6875C44.125 40.3125 44.0625 40.875 43.875 41.375C43.6875 41.8125 43.5 42.2812 43.3125 42.7812ZM40.6875 48.6875C40.1875 48.75 39.8125 48.9688 39.5625 49.3438C39.375 49.7188 39.25 50.1562 39.1875 50.6562C39.1875 51.0938 39.2812 51.5312 39.4688 51.9688C39.6562 52.4062 39.9062 52.7188 40.2188 52.9062C40.7812 52.8438 41.1875 52.6562 41.4375 52.3438C41.6875 51.9688 41.7812 51.5625 41.7188 51.125C41.7188 50.6875 41.5938 50.25 41.3438 49.8125C41.1562 49.3125 40.9375 48.9375 40.6875 48.6875ZM58.4062 76.7188C58.5312 76.2188 58.4375 75.8438 58.125 75.5938C57.8125 75.2812 57.625 74.875 57.5625 74.375C57.5 73.875 57.5312 73.4062 57.6562 72.9688C57.7812 72.4688 57.7812 72 57.6562 71.5625C57.5312 71.0625 57.2812 70.6875 56.9062 70.4375C56.5938 70.1875 56.3438 69.875 56.1562 69.5C55.4688 69.5 55 69.2188 54.75 68.6562C54.5625 68.0938 54.3125 67.5 54 66.875C53.3125 65.875 52.875 65.1562 52.6875 64.7188C52.5625 64.2188 52.3125 63.8125 51.9375 63.5C51.375 62.125 50.6875 60.7812 49.875 59.4688C49.0625 58.0938 48.3125 56.75 47.625 55.4375C47.25 55.75 47.0312 56.1875 46.9688 56.75C46.9062 57.3125 46.8125 57.8438 46.6875 58.3438C46.3125 59.0938 46.0938 59.5625 46.0312 59.75C46.0312 59.875 46 60 45.9375 60.125C45.6875 60.5625 45.4375 60.75 45.1875 60.6875C44.9375 60.625 44.625 60.6562 44.25 60.7812C43.625 60.9062 43.1875 61.3125 42.9375 62C42.6875 62.625 42.5938 63.2812 42.6562 63.9688C42.6562 64.2812 42.7188 64.5938 42.8438 64.9062C42.9688 65.2188 43.0312 65.5312 43.0312 65.8438C43.0938 66.2812 43 66.75 42.75 67.25C42.5625 67.6875 42.3438 68.1562 42.0938 68.6562C41.7812 69.5312 41.5312 70.375 41.3438 71.1875C41.1562 72 40.8438 72.75 40.4062 73.4375C40.2188 74.375 39.9375 75.2188 39.5625 75.9688C39.25 76.7188 39.0312 77.5312 38.9062 78.4062C41.7188 78.2812 44.3438 78.2188 46.7812 78.2188C49.2812 78.1562 51.7188 77.9375 54.0938 77.5625C54.5312 77.5 54.9062 77.4375 55.2188 77.375C55.5938 77.25 55.9688 77.1875 56.3438 77.1875C56.6562 77.1875 57 77.1875 57.375 77.1875C57.75 77.125 58.0938 76.9688 58.4062 76.7188ZM70.9688 88.3438C71.0938 88.0938 71.1562 87.7188 71.1562 87.2188C71.2188 86.6562 71.2188 86.2812 71.1562 86.0938C71.0938 85.7188 70.875 85.2188 70.5 84.5938C70.125 83.9688 69.8438 83.5938 69.6562 83.4688C69.3438 83.2812 69 83.25 68.625 83.375C68.3125 83.4375 67.9062 83.4688 67.4062 83.4688C66.4688 83.4062 65.7188 83.4062 65.1562 83.4688C64.5938 83.5312 64.0625 83.5938 63.5625 83.6562C63.125 83.7812 62.7188 83.8125 62.3438 83.75C62.0312 83.6875 61.75 83.6875 61.5 83.75C61.375 84 61.2188 84.2188 61.0312 84.4062C60.9062 84.5938 60.8125 84.8438 60.75 85.1562C61.125 85.4688 61.5 85.5625 61.875 85.4375C62.25 85.3125 62.75 85.2812 63.375 85.3438C63.625 85.3438 63.8438 85.375 64.0312 85.4375C64.2188 85.4375 64.4062 85.4062 64.5938 85.3438C64.9062 85.2812 65.1562 85.1875 65.3438 85.0625C65.5938 84.9375 65.8125 84.875 66 84.875C66.5 84.875 66.8125 85.0312 66.9375 85.3438C67.0625 85.5938 67.2188 85.875 67.4062 86.1875C67.4688 86.3125 67.5625 86.4688 67.6875 86.6562C67.8125 86.7812 67.9375 86.9688 68.0625 87.2188C68.3125 87.7188 68.5 88.0938 68.625 88.3438C68.75 88.5938 69.0312 88.7812 69.4688 88.9062C69.7812 88.7812 70.0625 88.7188 70.3125 88.7188C70.625 88.6562 70.8438 88.5312 70.9688 88.3438ZM79.875 68.9375C80.5 68.4375 80.5938 67.5625 80.1562 66.3125C80.0312 66.0625 79.8438 65.8438 79.5938 65.6562C79.4062 65.4062 79.2188 65.125 79.0312 64.8125C78.9062 64.5625 78.75 64.2812 78.5625 63.9688C78.4375 63.6562 78.25 63.3125 78 62.9375C77.875 62.625 77.7188 62.3438 77.5312 62.0938C77.4062 61.8438 77.2812 61.5625 77.1562 61.25C77.0938 61 77.0625 60.7812 77.0625 60.5938C77.0625 60.4062 77.0312 60.2188 76.9688 60.0312C76.8438 59.7812 76.7188 59.5312 76.5938 59.2812C76.4688 58.9688 76.3125 58.6875 76.125 58.4375C75.8125 57.9375 75.5 57.5625 75.1875 57.3125C74.9375 57 74.5312 56.7812 73.9688 56.6562C73.7812 56.8438 73.5 56.9688 73.125 57.0312C72.8125 57.0938 72.5312 57.0938 72.2812 57.0312C72.0312 57.9062 72.1875 58.5938 72.75 59.0938C73.375 59.5312 73.9375 59.9062 74.4375 60.2188C75 60.9062 75.4062 61.9375 75.6562 63.3125C75.9688 64.6875 76.3438 65.875 76.7812 66.875C76.8438 67.125 76.9062 67.3438 76.9688 67.5312C77.0938 67.7188 77.2188 67.9375 77.3438 68.1875C77.6562 68.625 77.9688 68.9062 78.2812 69.0312C78.6562 69.0938 79.1875 69.0625 79.875 68.9375ZM93.375 95.375C93.5625 95.3125 93.8438 95.0938 94.2188 94.7188C94.6562 94.2812 94.875 93.9062 94.875 93.5938C94.875 93.5312 94.75 93.1875 94.5 92.5625C94.3125 91.9375 94.125 91.3438 93.9375 90.7812C93.75 90.2188 93.3438 90 92.7188 90.125C92.4688 90.1875 92.2188 90.3125 91.9688 90.5C91.7188 90.6875 91.5312 90.9375 91.4062 91.25C91.2812 91.5625 91.1875 92.0312 91.125 92.6562C91.125 93.2188 91.2188 93.6562 91.4062 93.9688C91.5312 94.2812 91.8125 94.625 92.25 95C92.6875 95.3125 93.0625 95.4375 93.375 95.375ZM65.8125 28.1562C65.75 28.0312 65.7188 27.875 65.7188 27.6875C65.7188 27.4375 65.6875 27.25 65.625 27.125C65.5 26.875 65.4062 26.7187 65.3438 26.6562C65.2812 26.5312 65.25 26.3437 65.25 26.0938C65.375 25.9062 65.625 25.8125 66 25.8125C66.375 25.8125 66.6875 25.8125 66.9375 25.8125C67.125 26.0625 67.375 26.4063 67.6875 26.8438C67.8125 27.1563 67.9375 27.4687 68.0625 27.7812C68.25 28.0312 68.4062 28.3125 68.5312 28.625C68.7812 29.3125 68.9375 29.6875 69 29.75C69.0625 29.8125 69.0938 29.9062 69.0938 30.0312C69.0938 30.1563 69 30.3125 68.8125 30.5C68.625 30.6875 68.4062 30.7812 68.1562 30.7812C67.8438 30.7188 67.5312 30.4687 67.2188 30.0312C66.9688 29.5312 66.75 29.1562 66.5625 28.9062C66.4375 28.7812 66.2812 28.6563 66.0938 28.5312C65.9688 28.4062 65.875 28.2813 65.8125 28.1562ZM33.75 41.9375C33.9375 41.625 34.1562 41.25 34.4062 40.8125C34.6562 40.3125 34.7188 39.8125 34.5938 39.3125C34.5312 39.0625 34.375 38.8125 34.125 38.5625C33.875 38.25 33.625 37.9688 33.375 37.7188C33.125 37.4062 32.9062 37.0938 32.7188 36.7812C32.5938 36.4688 32.5938 36.0938 32.7188 35.6562C32.7188 35.5938 32.8125 35.375 33 35C33.25 34.625 33.4375 34.4062 33.5625 34.3438C34.0625 34.9062 34.375 35.375 34.5 35.75C34.625 36.0625 34.75 36.375 34.875 36.6875C35.1875 37.1875 35.5 37.8125 35.8125 38.5625C36.125 39.25 36.4375 39.9062 36.75 40.5312C36.6875 41.1562 36.5 41.6562 36.1875 42.0312C35.9375 42.4062 35.6875 42.9062 35.4375 43.5312C35.3125 43.9062 35.1875 44.25 35.0625 44.5625C34.9375 44.875 34.8438 45.25 34.7812 45.6875C33.7188 45.0625 33.1875 44.4688 33.1875 43.9062C33.25 43.2812 33.4375 42.625 33.75 41.9375ZM70.7812 36.5938C70.5312 36.0938 70.2188 35.625 69.8438 35.1875C69.5312 34.6875 69.3125 34.1875 69.1875 33.6875C69.5 33.5625 69.7812 33.5625 70.0312 33.6875C70.2812 33.75 70.5625 33.75 70.875 33.6875C71.125 34 71.3438 34.3125 71.5312 34.625C71.7812 34.875 72.0312 35.1562 72.2812 35.4688C72.4062 36.0938 72.6562 36.5938 73.0312 36.9688C73.4062 37.3438 73.75 37.7812 74.0625 38.2812C74.375 38.7812 74.5938 39.25 74.7188 39.6875C74.8438 40.125 75.0625 40.5938 75.375 41.0938C76.0625 42.3438 76.75 43.5938 77.4375 44.8438C78.1875 46.0938 78.9375 47.3438 79.6875 48.5938C79.625 48.7812 79.625 49.0312 79.6875 49.3438C79.75 49.5938 79.8125 49.875 79.875 50.1875C79.9375 50.5 79.9375 50.7812 79.875 51.0312C79.8125 51.2188 79.6562 51.3438 79.4062 51.4062C79.1562 51.4062 78.875 51.25 78.5625 50.9375C78.25 50.625 78.0625 50.4062 78 50.2812C77.875 50.1562 77.7812 50 77.7188 49.8125C77.6562 49.5625 77.5625 49.3438 77.4375 49.1562C77.3125 49.0312 77.1875 48.875 77.0625 48.6875C77 48.5 76.9062 48.3438 76.7812 48.2188C76.5312 47.8438 76.3125 47.4688 76.125 47.0938C76 46.7188 75.8438 46.375 75.6562 46.0625C75.5312 45.875 75.3438 45.7188 75.0938 45.5938C74.8438 45.4062 74.6562 45.2188 74.5312 45.0312C74.2188 44.7188 73.9688 44.2812 73.7812 43.7188C73.5938 43.1562 73.4375 42.625 73.3125 42.125C73.1875 41.625 73.0312 41.1562 72.8438 40.7188C72.7188 40.2188 72.5625 39.75 72.375 39.3125C72 39 71.7188 38.5938 71.5312 38.0938C71.3438 37.5938 71.0938 37.0938 70.7812 36.5938ZM22.4062 77.375C21.9062 77.5 21.3125 77.5312 20.625 77.4688C19.9375 77.3438 19.6562 77.0312 19.7812 76.5312C19.8438 76.2812 20.1562 76.0312 20.7188 75.7812C21.2812 75.4688 21.7188 75.3125 22.0312 75.3125C22.2812 75.1875 22.4375 75.0625 22.5 74.9375C22.5625 74.75 22.6875 74.5938 22.875 74.4688C22.9375 73.7812 23.3125 73.2188 24 72.7812C24.1875 72.4062 24.375 72.0625 24.5625 71.75C24.75 71.375 24.9375 71 25.125 70.625C25.3125 71.875 25.1875 72.9688 24.75 73.9062C24.3125 74.7812 24 75.7812 23.8125 76.9062C23.3125 77.1562 22.8438 77.3125 22.4062 77.375ZM45 74.4688C45.1875 74.5938 45.4688 74.6562 45.8438 74.6562C46.2188 74.6562 46.5938 74.6875 46.9688 74.75C47.3438 74.75 47.6562 74.8125 47.9062 74.9375C48.2188 75 48.4062 75.1875 48.4688 75.5C47.2188 76.1875 46.0312 76.5625 44.9062 76.625C43.8438 76.625 42.8125 76.6562 41.8125 76.7188C41.5 76.2812 41.4688 75.8125 41.7188 75.3125C41.9688 74.8125 42.0312 74.2812 41.9062 73.7188C42.2188 73.4688 42.4375 73.1875 42.5625 72.875C42.75 72.5625 42.9688 72.2812 43.2188 72.0312C43.1562 71.5938 43.2188 71.1875 43.4062 70.8125C43.6562 70.4375 44 70.3125 44.4375 70.4375C44.625 70.75 44.6875 71.125 44.625 71.5625C44.625 71.9375 44.5938 72.3125 44.5312 72.6875C44.5312 73.0625 44.5312 73.4062 44.5312 73.7188C44.5312 74.0312 44.6875 74.2812 45 74.4688ZM14.8125 95.0938C15.125 95.2188 15.2812 95.5 15.2812 95.9375C15.3438 96.375 15.4375 96.875 15.5625 97.4375C15.3125 97.5625 15.0938 97.75 14.9062 98C14.7812 98.1875 14.5312 98.2188 14.1562 98.0938C13.5938 98.1562 13.1562 98 12.8438 97.625C12.5312 97.25 12.2188 96.9688 11.9062 96.7812C11.7188 96.7188 11.375 96.75 10.875 96.875C10.5625 96.875 10.1875 96.875 9.75 96.875C9.375 96.8125 9.03125 96.8125 8.71875 96.875C8.40625 96.9375 8.1875 96.9688 8.0625 96.9688C7.9375 96.9062 7.71875 96.8125 7.40625 96.6875C7.15625 96.5625 6.9375 96.4062 6.75 96.2188C6.5625 96.0312 6.4375 95.75 6.375 95.375C6.25 94.875 6.28125 94.3438 6.46875 93.7812C6.59375 93.2188 6.65625 92.6875 6.65625 92.1875C6.65625 91.875 6.65625 91.5625 6.65625 91.25C6.59375 90.9375 6.625 90.6562 6.75 90.4062C6.8125 90.2812 6.9375 90.125 7.125 89.9375C7.3125 89.75 7.53125 89.5938 7.78125 89.4688C7.96875 89.3438 8.15625 89.3125 8.34375 89.375C8.53125 89.375 8.65625 89.5 8.71875 89.75C8.78125 90.125 8.75 90.5625 8.625 91.0625C8.5625 91.5625 8.5 92.0625 8.4375 92.5625C8.375 93.0625 8.375 93.5625 8.4375 94.0625C8.5625 94.5 8.8125 94.875 9.1875 95.1875C9.875 95.125 10.2812 95.1562 10.4062 95.2812C10.5938 95.3438 10.7812 95.375 10.9688 95.375C11.5312 95.4375 12.1875 95.3438 12.9375 95.0938C13.6875 94.7812 14.3125 94.7812 14.8125 95.0938ZM39.8438 93.0312C40.2812 92.9688 40.6875 93.0625 41.0625 93.3125C40.5625 94.0625 40.0312 94.4375 39.4688 94.4375C38.5312 95.3125 37.8438 96 37.4062 96.5C36.9688 96.9375 36.5938 97.4688 36.2812 98.0938C36.2188 98.8438 36.0625 99.5 35.8125 100.062C35.5625 100.625 35.2812 101.156 34.9688 101.656C34.5938 101.656 34.2188 101.781 33.8438 102.031C33.5938 101.781 33.5625 101.5 33.75 101.188C33.9375 100.938 33.9688 100.594 33.8438 100.156C33.9688 99.1562 34.1562 98.3125 34.4062 97.625C34.7188 96.9375 34.8438 96.5 34.7812 96.3125C34.7188 96.0625 34.75 95.8438 34.875 95.6562C34.9375 95.4688 35.0625 95.2812 35.25 95.0938C35.4375 94.9062 35.5625 94.75 35.625 94.625C36.375 94.1875 37.125 93.9062 37.875 93.7812C38.6875 93.5938 39.3438 93.3438 39.8438 93.0312ZM94.5 100.812C94.75 100.75 95.0312 100.875 95.3438 101.188C95.7188 101.5 95.875 101.781 95.8125 102.031C95.3125 102.844 94.8125 103.344 94.3125 103.531C93.875 103.719 93.4375 103.875 93 104C92.75 104.062 92.5 104.094 92.25 104.094C92.0625 104.156 91.875 104.094 91.6875 103.906C92 102.969 92.375 102.25 92.8125 101.75C93.25 101.312 93.8125 101 94.5 100.812ZM86.9062 104.75C87.0312 104.875 87.2812 104.906 87.6562 104.844C88.0938 104.781 88.3125 104.906 88.3125 105.219C88.3125 105.469 87.9375 105.719 87.1875 105.969C86.4375 106.219 85.9688 106.406 85.7812 106.531L79.2188 109.812C79.0938 110 78.9062 110.094 78.6562 110.094C78.4062 110.156 78.1875 110.25 78 110.375C77.75 110.5 77.5312 110.656 77.3438 110.844C77.2188 111.031 76.9688 111.156 76.5938 111.219C76.2812 111.281 75.9688 111.219 75.6562 111.031C75.3438 110.906 75.0312 110.812 74.7188 110.75C74.4062 110.75 74.125 110.75 73.875 110.75C73.6875 110.812 73.5 110.812 73.3125 110.75C72.3125 110.5 71.4375 109.969 70.6875 109.156C70 108.344 69.4062 107.594 68.9062 106.906C68.9062 106.594 68.8438 106.375 68.7188 106.25C68.5938 106.125 68.5 105.938 68.4375 105.688C67.8125 105.312 67.375 104.969 67.125 104.656C66.9375 104.406 66.9062 104.062 67.0312 103.625C67.1562 103.375 67.375 103.188 67.6875 103.062C68 102.938 68.25 102.938 68.4375 103.062C68.9375 103.188 69.3125 103.562 69.5625 104.188C69.8125 104.812 70.1562 105.375 70.5938 105.875C70.9062 106.375 71.3125 106.812 71.8125 107.188C72.3125 107.625 72.8125 108 73.3125 108.312C73.625 108.375 73.9375 108.469 74.25 108.594C74.5625 108.719 74.875 108.781 75.1875 108.781C75.875 108.719 76.5312 108.562 77.1562 108.312C77.7812 108.125 78.4375 108 79.125 107.938C80.875 107.5 82.3125 106.969 83.4375 106.344C84.5625 105.781 85.7188 105.25 86.9062 104.75Z" fill="#C02C38"/>
</g>
<defs>
<filter id="filter0_d_1_13" x="0" y="16" width="108" height="108" filterUnits="userSpaceOnUse" color-interpolation-filters="sRGB">
<feFlood flood-opacity="0" result="BackgroundImageFix"/>
<feColorMatrix in="SourceAlpha" type="matrix" values="0 0 0 0 0 0 0 0 0 0 0 0 0 0 0 0 0 0 127 0" result="hardAlpha"/>
<feOffset dy="4"/>
<feGaussianBlur stdDeviation="2"/>
<feComposite in2="hardAlpha" operator="out"/>
<feColorMatrix type="matrix" values="0 0 0 0 0 0 0 0 0 0 0 0 0 0 0 0 0 0 0.25 0"/>
<feBlend mode="normal" in2="BackgroundImageFix" result="effect1_dropShadow_1_13"/>
<feBlend mode="normal" in="SourceGraphic" in2="effect1_dropShadow_1_13" result="shape"/>
</filter>
<filter id="filter1_d_1_13" x="2.1875" y="24.5938" width="102.125" height="94.7188" filterUnits="userSpaceOnUse" color-interpolation-filters="sRGB">
<feFlood flood-opacity="0" result="BackgroundImageFix"/>
<feColorMatrix in="SourceAlpha" type="matrix" values="0 0 0 0 0 0 0 0 0 0 0 0 0 0 0 0 0 0 127 0" result="hardAlpha"/>
<feOffset dy="4"/>
<feGaussianBlur stdDeviation="2"/>
<feComposite in2="hardAlpha" operator="out"/>
<feColorMatrix type="matrix" values="0 0 0 0 0 0 0 0 0 0 0 0 0 0 0 0 0 0 0.25 0"/>
<feBlend mode="normal" in2="BackgroundImageFix" result="effect1_dropShadow_1_13"/>
<feBlend mode="normal" in="SourceGraphic" in2="effect1_dropShadow_1_13" result="shape"/>
</filter>
</defs>
</svg>
